<svg width="800" height="600" viewBox="0 0 800 600" xmlns="http://www.w3.org/2000/svg" xml:space="preserve" fill-rule="evenodd" clip-rule="evenodd" stroke-linejoin="round" stroke-miterlimit="2"><path d="M800 11.8v576.4c0 6.5-5.3 11.8-11.8 11.8H11.8C5.3 600 0 594.7 0 588.2V11.8C0 5.3 5.3 0 11.8 0h776.4c6.5 0 11.8 5.3 11.8 11.8" fill="#ebebeb"/><clipPath id="a"><path d="M800 11.8v576.4c0 6.5-5.3 11.8-11.8 11.8H11.8C5.3 600 0 594.7 0 588.2V11.8C0 5.3 5.3 0 11.8 0h776.4c6.5 0 11.8 5.3 11.8 11.8"/></clipPath><g clip-path="url(#a)"><path fill="#d7cadd" d="M-156.4 0H956.3v600H-156.4z"/><path d="m383.8 291.7-.8.3a7 7 0 0 0-3.1 5.3q0 1 .3 1l1-.3a7 7 0 0 0 3-5.3q0-1-.2-1zm-3.5 10.2q-1 0-2-.5-2-1.1-2-4.1c0-3.2 2.1-6.9 4.9-8.4q2.5-1.4 4.6-.3 2 1.3 2 4.1c0 3.2-2.1 6.9-4.9 8.5q-1.3.7-2.6.7" fill="#feeecd" fill-rule="nonzero"/><path d="M378.6 362.1q-2.6 0-4.7-1.2c-6.5-3.5-7.4-14.3-2.1-25.1l6.6-13.6q2.2-4.6 2.2-8.5v-14.3h3.6v14.3q-.1 4.9-2.6 10l-6.6 13.7c-4.4 8.9-4 17.8.6 20.4 5.2 2.8 14-2.9 19.3-12.3l2.4-4.3a10 10 0 0 1-3.7 1.6l-.2-3.6c1-.2 5-3 8.2-5.4l3.6-2.8-.9 5-6.3 11.2c-5 9.2-12.9 14.9-19.4 14.9m2.1-71.7L380.8 0h2.7v290.4z" fill="#feeecd" fill-rule="nonzero"/><path d="m394.9 375.5 8.3-57.1c.5-3.5 3.5-4.2 6.7-1.7l15.6 12.3c3.2 2.5 5.3 7.4 4.8 10.8L422 397c-.5 3.5-3.5 4.2-6.7 1.7l-15.6-12.3c-3.2-2.5-5.3-7.4-4.8-10.8" fill="#d6cadf" fill-rule="nonzero"/><path d="m419.9 397.4 8.3-57c.5-3.5-1.7-8.4-4.8-10.9l-15.7-12.3a6 6 0 0 0-3.2-1.5q-1.1.8-1.3 2.6l-8.4 57c-.5 3.5 1.7 8.4 4.8 10.9l15.7 12.3q1.8 1.4 3.2 1.5 1-.8 1.4-2.6" fill="#fff0cd" fill-rule="nonzero"/><path d="M395.4 375.5c-.5 3.3 1.6 8 4.6 10.3l15.7 12.4q2.3 1.8 4.1 1.2 1.4-.6 1.7-2.6l8.3-57c.5-3.3-1.6-8-4.6-10.3L409.5 317q-2.4-1.8-4.1-1.2-1.4.6-1.7 2.6zm-.2 5.4a11 11 0 0 1-.9-5.5l8.4-57q.3-2.7 2.3-3.5 2.4-.8 5.2 1.3l15.7 12.4c3.2 2.6 5.5 7.7 5 11.3l-8.4 57q-.3 2.7-2.3 3.5-2.4.9-5.2-1.3l-15.6-12.4a14 14 0 0 1-4.2-5.8" fill="#d6cadf" fill-rule="nonzero"/><path d="M413.6 389c.4-3 2.6-3.8 5-2l.6.6 6.6-44.7-.7-.5a10 10 0 0 1-3.5-8.7l.4-1.3-10.3-8.2v1.6c-.5 3-2.7 3.9-5 2l-.7-.5-6.5 44.7.6.4c2.3 1.9 3.9 5.8 3.5 8.7l-.5 1.3 10.4 8.3z" fill="#d6cadf" fill-rule="nonzero"/><path d="M403.4 376.2q1 2.5.7 5 0 .6-.3 1l9.2 7.3v-.6q.4-2.4 2.2-3.2 1.6-.6 3.7.9l6.3-43.5-.4-.3a11 11 0 0 1-3.7-9.1l.3-1.2-9.2-7.2v.6q-.4 2.5-2.2 3.2-1.6.6-3.6-.8l-6.3 43.4.3.3q2 1.6 3 4.2m-1 6.4.3-.4.3-1.2a10 10 0 0 0-3.2-8.2q-.3 0-.5-.3l-.3-.2v-.4l6.7-45.8.7.8.6.5q1.5 1.2 2.6.7t1.5-2.4V323l11.6 9.2-.2.4-.3 1.2c-.4 2.8 1 6.4 3.2 8.2l.6.4.4.2-6.8 46.2-.7-.8-.7-.6q-1.5-1.1-2.7-.7-1 .5-1.4 2.4v2.7z" fill="#17120f" fill-rule="nonzero"/><path d="M412 366c-3.7-3-6.2-9.3-5.5-14 .7-4.8 4.3-6.2 8-3.2s6.3 9.2 5.6 14c-.7 4.7-4.3 6.2-8 3.2" fill="#d6cadf" fill-rule="nonzero"/><path d="M410.2 366.7c-3.8-3-6.3-9.2-5.6-14 .7-4.7 4.3-6.2 8-3.2 3.9 3 6.3 9.3 5.7 14-.7 4.8-4.4 6.2-8.1 3.2" fill="#fff0cd" fill-rule="nonzero"/><path d="m418.5 355.3-1.3-2.6q-1.3-2.1-3-3.5-2.6-2-4.6-1.2-2.1.9-2.6 4a16 16 0 0 0 5.4 13.6q2.5 2 4.6 1.2 2.1-1 2.6-4.1.4-3.6-1.1-7.4m-11.4 4.5a16 16 0 0 1-1.2-7.9q.6-3.8 3.3-5 2.6-.9 5.7 1.5c3.9 3 6.5 9.5 5.7 14.4q-.6 3.8-3.2 5-2.6 1-5.7-1.4a16 16 0 0 1-4.6-6.6m-20.7-65.9-.9.3a7 7 0 0 0-3 5.3q0 1 .2 1l1-.3a7 7 0 0 0 3-5.3q0-1-.2-1zm-3.6 10.2q-1 0-2-.5-1.9-1.1-2-4.1c0-3.2 2.2-6.9 5-8.4q2.4-1.4 4.5-.3 2 1.3 2 4.1c0 3.2-2 6.9-4.8 8.5q-1.4.7-2.7.7" fill="#17120f" fill-rule="nonzero"/><path d="M381.1 364.3q-2.4 0-4.7-1.2c-6.5-3.5-7.4-14.3-2.1-25.1l6.6-13.6q2.1-4.6 2.2-8.5v-14.3h3.7v14.3c0 3-1 6.7-2.6 10l-6.7 13.7c-4.3 8.9-4 17.8.6 20.4 5.2 2.8 14-2.9 19.3-12.3l2.4-4.3q-2.3 1.4-3.6 1.6l-.2-3.6c.9-.2 5-3 8.1-5.4l3.6-2.8-.8 5-6.3 11.2c-5.2 9.2-13 14.9-19.5 14.9m2.2-71.7V0h2.7v292.6z" fill="#17120f" fill-rule="nonzero"/></g></svg>