<svg width="22px" height="26px" viewBox="0 0 20 24" version="1.1" xmlns="http://www.w3.org/2000/svg" xmlns:xlink="http://www.w3.org/1999/xlink" xml:space="preserve" style="fill-rule:evenodd;clip-rule:evenodd;stroke-linejoin:round;stroke-miterlimit:2;">
    <g transform="matrix(0.927155,0,0,0.927155,-1.12586,0.873498)">
        <g transform="matrix(1,0,0,1,0.0937272,-1.77636e-15)">
            <path d="M21.09,15.405C21.09,19.734 17.568,23.256 13.238,23.256C10.704,23.256 8.315,22.026 6.845,19.963L2.997,14.565C2.816,14.312 2.721,14.012 2.721,13.695C2.721,13.274 2.897,12.866 3.201,12.578C3.492,12.309 3.862,12.175 4.229,12.175C4.611,12.175 4.992,12.32 5.285,12.607L6.999,14.285C7.107,14.39 7.267,14.421 7.403,14.363C7.541,14.304 7.631,14.169 7.631,14.019L7.631,2.144C7.631,1.772 7.776,1.418 8.034,1.154C8.327,0.868 8.718,0.721 9.121,0.748C9.846,0.792 10.435,1.463 10.435,2.245L10.435,8.53C10.435,8.531 10.437,8.532 10.437,8.533L10.437,10.791C10.437,10.997 10.603,11.164 10.809,11.164C11.015,11.164 11.182,10.997 11.182,10.791L11.182,8.532C11.182,8.531 11.181,8.53 11.181,8.529C11.181,8.133 11.35,7.753 11.645,7.486C11.942,7.219 12.319,7.095 12.728,7.136C13.437,7.21 13.992,7.876 13.992,8.652L13.992,9.43C13.992,9.435 13.989,9.439 13.989,9.444L13.989,11.704C13.989,11.91 14.156,12.076 14.362,12.076C14.568,12.076 14.734,11.91 14.734,11.704L14.734,9.462C14.734,9.457 14.737,9.453 14.737,9.447C14.737,9.047 14.9,8.678 15.195,8.408C15.49,8.138 15.872,8.009 16.278,8.045C16.987,8.109 17.542,8.768 17.542,9.546L17.542,12.614C17.542,12.82 17.708,12.987 17.914,12.987C18.121,12.987 18.287,12.82 18.287,12.614L18.287,10.357C18.287,9.956 18.449,9.588 18.744,9.318C19.04,9.048 19.423,8.918 19.827,8.955C20.537,9.017 21.091,9.677 21.091,10.455L21.09,15.405Z" style="fill:#111;stroke:whitesmoke;stroke-width:1.62px;"/>
        </g>
        <g transform="matrix(0.26789,0,0,0.26789,-1.39437,-2.78813)">
            <path d="M79.812,41.07C77.543,40.867 75.308,41.625 73.648,43.144C73.562,43.218 73.484,43.3 73.402,43.379C72.414,40.289 69.761,37.957 66.57,37.672C64.293,37.468 62.062,38.226 60.402,39.746C60.312,39.828 60.226,39.91 60.14,39.996C59.144,36.941 56.523,34.613 53.363,34.285C51.167,34.05 48.96,34.746 47.296,36.183L47.292,18.785C47.292,14.356 43.992,10.684 39.777,10.426C37.488,10.285 35.269,11.102 33.585,12.75C32.089,14.277 31.265,16.289 31.265,18.41L31.265,59.433L27.226,55.476C24.015,52.332 18.921,52.265 15.605,55.328C13.906,56.937 12.933,59.195 12.933,61.527C12.933,63.293 13.472,64.976 14.484,66.386L28.847,86.534C34.859,94.968 44.624,99.999 54.976,99.999C72.671,99.999 87.066,85.604 87.066,67.913L87.066,49.436C87.062,45.108 83.878,41.429 79.812,41.069L79.812,41.07M84.285,67.914C84.285,84.074 71.137,97.223 54.973,97.223C45.516,97.223 36.598,92.629 31.11,84.93L16.747,64.778C16.071,63.837 15.716,62.716 15.716,61.532C15.716,59.962 16.372,58.438 17.509,57.364C18.594,56.36 19.973,55.86 21.344,55.86C22.77,55.86 24.192,56.399 25.286,57.469L31.684,63.735C32.087,64.126 32.684,64.243 33.192,64.024C33.708,63.805 34.044,63.301 34.044,62.743L34.044,18.415C34.044,17.024 34.587,15.704 35.547,14.72C36.641,13.649 38.102,13.102 39.606,13.204C42.313,13.368 44.512,15.872 44.512,18.79L44.512,42.251C44.512,42.255 44.516,42.259 44.516,42.263L44.516,50.692C44.516,51.462 45.137,52.083 45.907,52.083C46.676,52.083 47.297,51.462 47.297,50.692L47.297,42.259C47.297,42.255 47.293,42.251 47.293,42.247C47.293,40.77 47.926,39.352 49.028,38.356C50.137,37.356 51.543,36.895 53.071,37.048C55.715,37.325 57.79,39.809 57.79,42.708L57.79,45.61C57.79,45.63 57.778,45.645 57.778,45.665L57.778,54.099C57.778,54.868 58.399,55.489 59.169,55.489C59.938,55.489 60.559,54.868 60.559,54.099L60.559,45.731C60.559,45.712 60.571,45.696 60.571,45.677C60.571,44.181 61.176,42.806 62.278,41.798C63.379,40.79 64.805,40.306 66.321,40.442C68.969,40.681 71.04,43.141 71.04,46.044L71.04,57.497C71.04,58.266 71.661,58.887 72.43,58.887C73.2,58.887 73.821,58.266 73.821,57.497L73.821,49.071C73.821,47.575 74.426,46.2 75.528,45.192C76.633,44.184 78.063,43.7 79.571,43.837C82.219,44.071 84.29,46.532 84.29,49.438L84.285,67.914" style="fill:whitesmoke;fill-rule:nonzero;stroke:whitesmoke;stroke-width:4.25px;"/>
        </g>
    </g>
</svg>