<svg width="20px" height="24px" viewBox="0 0 20 24" version="1.1" xmlns="http://www.w3.org/2000/svg" xmlns:xlink="http://www.w3.org/1999/xlink" xml:space="preserve" style="fill-rule:evenodd;clip-rule:evenodd;stroke-linejoin:round;stroke-miterlimit:2;">
    <g transform="matrix(0.796705,0.200179,-0.200179,0.796705,1.60884,0.273477)">
        <path d="M2.724,0.926L22.246,8.146C22.9,8.388 23.147,8.961 23.162,9.417C23.176,9.87 22.965,10.455 22.33,10.738L17.631,12.84C17.505,12.896 17.415,13.01 17.389,13.147C17.365,13.282 17.408,13.421 17.506,13.519L22.582,18.595C22.897,18.909 23.069,19.327 23.069,19.772C23.069,20.218 22.895,20.636 22.583,20.949L20.95,22.575C20.322,23.203 19.222,23.203 18.594,22.575L13.517,17.499C13.419,17.402 13.282,17.359 13.145,17.384C13.009,17.409 12.895,17.499 12.839,17.625L10.746,22.329C10.461,22.965 9.873,23.18 9.415,23.159C8.962,23.143 8.392,22.895 8.152,22.247L0.926,2.726C0.731,2.2 0.853,1.647 1.25,1.252C1.522,0.979 1.867,0.837 2.227,0.837C2.392,0.837 2.559,0.866 2.724,0.926Z" style="fill:whitesmoke;"/>
        <g transform="matrix(0.3015,0,0,0.3015,-6.14965,-5.97297)">
            <path d="M58.574,95.009L64.695,81.247L80.101,96.649C83.347,99.891 88.609,99.883 91.839,96.653L97.257,91.258C100.491,88.024 100.491,82.754 97.257,79.516L81.851,64.11L95.589,57.962C98.401,56.716 100.089,54.028 99.995,50.958C99.897,47.88 98.042,45.298 95.147,44.223L30.397,20.278C27.644,19.267 24.655,19.923 22.581,21.997C20.511,24.067 19.851,27.064 20.866,29.817L44.835,94.563C45.894,97.442 48.46,99.294 51.531,99.403C51.624,99.407 51.714,99.407 51.808,99.407C54.769,99.403 57.343,97.743 58.573,95.009L58.574,95.009ZM29.433,22.884L94.183,46.829C96.351,47.633 97.171,49.532 97.218,51.043C97.265,52.547 96.566,54.489 94.46,55.426L78.874,62.399C78.456,62.582 78.159,62.961 78.073,63.415C77.991,63.864 78.136,64.325 78.46,64.649L95.296,81.485C96.339,82.528 96.909,83.915 96.909,85.391C96.909,86.868 96.335,88.254 95.3,89.293L89.882,94.688C87.8,96.77 84.152,96.77 82.07,94.688L65.23,77.852C64.905,77.528 64.448,77.387 63.995,77.469C63.546,77.551 63.167,77.852 62.98,78.27L56.038,93.872C55.093,95.981 53.144,96.692 51.624,96.622C50.12,96.571 48.23,95.747 47.437,93.598L23.468,28.852C22.823,27.106 23.225,25.274 24.542,23.962C25.444,23.06 26.589,22.587 27.784,22.587C28.331,22.587 28.886,22.685 29.432,22.884L29.433,22.884Z" style="fill:rgb(17,17,17);fill-rule:nonzero;stroke:#111;stroke-width:4.25px;"/>
        </g>
    </g>
</svg>